<svg id="Layer_1" enable-background="new 0 0 496.015 496.015" height="512" viewBox="0 0 496.015 496.015" width="512" xmlns="http://www.w3.org/2000/svg"><path d="m480.268 77.952-62.206-62.206c-28.103-28.103-75.882-16.971-88.741 20.557l-21.061 61.463c-29.572-20.182-70.333-17.182-96.551 9.039l-104.903 104.903c-26.22 26.22-29.22 66.98-9.039 96.551l-61.464 21.061c-37.603 12.885-48.605 60.693-20.557 88.741l62.206 62.206c28.108 28.108 75.883 16.969 88.741-20.557l21.061-61.464c29.729 20.288 70.439 17.075 96.551-9.039 5.189-5.189 100.002-100.002 104.902-104.902 26.22-26.22 29.22-66.98 9.039-96.551l61.464-21.061c37.604-12.885 48.606-60.693 20.558-88.741zm-343.846 371.386c-5.21 15.201-24.466 19.68-35.843 8.303l-62.206-62.206c-11.361-11.363-6.916-30.627 8.303-35.843l74.877-25.657c5.253 5.253 35.7 35.7 40.526 40.525zm230.16-187.66-61.752 61.752v-150.37c0-8.837-7.163-16-16-16s-16 7.163-16 16v182.37l-11.15 11.15c-17.156 17.154-45.069 17.154-62.226 0l-13.671-13.671v-109.899c0-8.837-7.163-16-16-16s-16 7.163-16 16v77.899l-24.35-24.35c-17.155-17.156-17.155-45.07 0-62.226l104.902-104.902c17.158-17.156 45.069-17.154 62.226 0 7.379 7.379 62.351 62.351 70.021 70.021 17.155 17.157 17.155 45.071 0 62.226zm82.756-125.256-74.877 25.657-40.526-40.525 25.657-74.877c5.209-15.199 24.467-19.678 35.843-8.303l62.206 62.206c11.361 11.362 6.917 30.625-8.303 35.842z"/></svg>