<svg height="512pt" viewBox="0 0 512 512" width="512pt" xmlns="http://www.w3.org/2000/svg"><path d="m507.605469 186.921875c-19.527344-19.523437-43.671875-32.757813-69.972657-38.671875 3.230469-2.714844 6.363282-5.570312 9.382813-8.589844 27.210937-27.210937 42.195313-63.390625 42.195313-101.871094 0-8.285156-6.714844-15-15-15-44.300782 0-83.992188 20.105469-110.441407 51.664063-5.902343-26.332031-19.144531-50.511719-38.691406-70.058594-2.816406-2.816406-6.628906-4.394531-10.609375-4.394531-3.976562 0-7.792969 1.578125-10.605469 4.394531-20.960937 20.960938-34.660156 47.246094-39.851562 75.800781-2.257813-2.609374-4.621094-5.160156-7.097657-7.636718-2.8125-2.8125-6.628906-4.394532-10.609374-4.394532-3.976563 0-7.796876 1.582032-10.609376 4.398438-21.457031 21.460938-34.707031 48.0625-39.773437 75.875-2.289063-2.640625-4.679687-5.214844-7.175781-7.710938-5.859375-5.859374-15.355469-5.859374-21.210938 0-52.59375 52.589844-55.941406 136.054688-10.058594 192.582032l-153.082031 153.085937c-5.859375 5.855469-5.859375 15.355469 0 21.210938 2.929688 2.929687 6.765625 4.394531 10.605469 4.394531s7.675781-1.464844 10.605469-4.394531l153.078125-153.078125c25.585937 20.8125 57.277344 32.132812 90.714844 32.136718h.015624c38.472657 0 74.648438-14.984374 101.859376-42.195312 2.8125-2.8125 4.394531-6.632812 4.394531-10.609375 0-3.980469-1.582031-7.796875-4.394531-10.605469-2.46875-2.472656-5.015626-4.839844-7.628907-7.105468 28.554688-5.191407 54.835938-18.890626 75.796875-39.847657 2.8125-2.8125 4.390625-6.628906 4.390625-10.605469 0-3.980468-1.578125-7.792968-4.390625-10.605468-2.472656-2.472656-5.015625-4.839844-7.628906-7.105469 28.460938-5.175781 54.664062-18.800781 75.589844-39.648437 1.460937-1.402344 2.648437-3.117188 3.453125-5.066407 2.324219-5.605469 1.039062-12.054687-3.25-16.347656zm-49.519531-132.996094c-3.425782 24.347657-14.589844 46.832031-32.285157 64.523438-15.414062 15.410156-34.460937 25.867187-55.210937 30.570312-.027344.003907-.050782.011719-.078125.019531-3.042969.6875-6.125 1.253907-9.234375 1.691407 7.105468-50.019531 46.789062-89.695313 96.808594-96.804688zm-143.617188-16.125c14.800781 19.644531 22.804688 43.4375 22.804688 68.464844 0 25.023437-8.007813 48.820313-22.804688 68.460937-14.796875-19.636718-22.804688-43.433593-22.804688-68.460937 0-25.023437 8.007813-48.824219 22.804688-68.464844zm-68.164062 68.183594c30.332031 40.394531 30.328124 96.5-.003907 136.890625-30.328125-40.390625-30.328125-96.496094.003907-136.890625zm-68.164063 68.148437c14.796875 19.640626 22.804687 43.4375 22.804687 68.460938 0 25.027344-8.007812 48.824219-22.804687 68.464844-14.800781-19.640625-22.804687-43.4375-22.804687-68.460938 0-25.027344 8.003906-48.824218 22.804687-68.464844zm91.273437 182.53125c-.003906 0-.007812 0-.011718 0-25.027344-.003906-48.824219-8.007812-68.460938-22.804687 19.640625-14.796875 43.4375-22.804687 68.464844-22.804687 25.023438 0 48.820312 8.003906 68.460938 22.804687-19.640626 14.800781-43.433594 22.804687-68.453126 22.804687zm68.152344-68.164062c-25.023437 0-48.820312-8.007812-68.460937-22.804688 19.644531-14.796874 43.441406-22.804687 68.46875-22.804687 25.023437 0 48.820312 8.003906 68.457031 22.800781-19.644531 14.800782-43.4375 22.808594-68.464844 22.808594zm68.167969-68.164062c-25.027344 0-48.824219-8.007813-68.464844-22.808594 12.222657-9.207032 26.058594-15.78125 40.792969-19.4375.226562-.054688.453125-.105469.683594-.160156 8.730468-2.109376 17.777344-3.203126 26.988281-3.203126 25.027344 0 48.820313 8.003907 68.460937 22.800782-19.640624 14.800781-43.4375 22.808594-68.460937 22.808594zm0 0"/></svg>