<svg id="Layer_3" enable-background="new 0 0 64 64" height="512" viewBox="0 0 64 64" width="512" xmlns="http://www.w3.org/2000/svg"><g><path d="m32 2c-16.569 0-30 13.431-30 30s13.431 30 30 30 30-13.431 30-30-13.431-30-30-30zm0 53c-12.703 0-23-10.297-23-23s10.297-23 23-23 23 10.297 23 23-10.297 23-23 23z" fill="#f4b2b0"/><g fill="#b3404a"><path d="m25 14c-3.859 0-7 3.589-7 8 0 3.177 1.634 5.92 3.987 7.21l-.987 17.79c0 2.206 1.794 4 4 4s4-1.794 3.998-4.056l-.985-17.734c2.354-1.29 3.987-4.033 3.987-7.21 0-4.411-3.141-8-7-8zm2 33c0 1.103-.897 2-2 2s-2-.897-2.002-1.944l.953-17.156c.343.059.692.1 1.049.1s.706-.041 1.049-.1zm-2-19c-2.757 0-5-2.691-5-6s2.243-6 5-6 5 2.691 5 6-2.243 6-5 6z"/><path d="m36.989 29.181-.989 17.819c0 2.206 1.794 4 4 4s4-1.794 3.998-4.056l-.987-17.763c1.784-1.041 2.989-2.971 2.989-5.181v-10h-2v8h-3v-8h-2v8h-3v-8h-2v10c0 2.211 1.205 4.14 2.989 5.181zm5.011 17.819c0 1.103-.897 2-2 2s-2-.897-2.002-1.944l.953-17.154c.341.061.691.098 1.049.098s.708-.037 1.049-.098zm2-23c0 2.206-1.794 4-4 4s-4-1.794-4-4z"/><path d="m32 1c-17.094 0-31 13.907-31 31 0 17.094 13.906 31 31 31s31-13.906 31-31c0-17.093-13.906-31-31-31zm0 60c-15.99 0-29-13.01-29-29 0-15.991 13.01-29 29-29s29 13.009 29 29c0 15.99-13.01 29-29 29z"/><path d="m32 57v2c14.888 0 27-12.112 27-27h-2c0 13.785-11.215 25-25 25z"/><path d="m32 5c-14.888 0-27 12.112-27 27h2c0-13.785 11.215-25 25-25z"/></g></g></svg>